<svg xmlns="http://www.w3.org/2000/svg" xmlns:xlink="http://www.w3.org/1999/xlink" width="750" zoomAndPan="magnify" viewBox="0 0 562.5 562.499982" height="750" preserveAspectRatio="xMidYMid meet" version="1.0"><defs><clipPath id="7319cda081"><path d="M 0 0 L 562 0 L 562 562 L 0 562 Z M 0 0 " clip-rule="nonzero"/></clipPath></defs><g clip-path="url(#7319cda081)"><path fill="#ffffff" d="M 0 0 L 562.5 0 L 562.5 562.5 L 0 562.5 Z M 0 0 " fill-opacity="1" fill-rule="nonzero"/><path fill="#ffffff" d="M 0 0 L 562.5 0 L 562.5 562.5 L 0 562.5 Z M 0 0 " fill-opacity="1" fill-rule="nonzero"/></g><path fill="#000000" d="M 265.605469 123.816406 C 264.699219 123.941406 263.820312 124.175781 262.96875 124.519531 L 29.707031 214.566406 C 28.660156 214.984375 27.695312 215.542969 26.816406 216.25 C 25.9375 216.953125 25.179688 217.773438 24.546875 218.707031 C 23.914062 219.640625 23.429688 220.644531 23.101562 221.722656 C 22.769531 222.800781 22.601562 223.902344 22.601562 225.03125 C 22.601562 226.160156 22.769531 227.261719 23.101562 228.339844 C 23.429688 229.417969 23.914062 230.425781 24.546875 231.355469 C 25.179688 232.289062 25.9375 233.109375 26.816406 233.816406 C 27.695312 234.519531 28.660156 235.082031 29.707031 235.496094 L 113.554688 267.859375 L 113.554688 357.027344 C 113.554688 358.132812 113.710938 359.214844 114.027344 360.273438 C 114.347656 361.335938 114.808594 362.324219 115.417969 363.246094 C 116.03125 364.171875 116.757812 364.984375 117.609375 365.695312 C 118.457031 366.402344 119.390625 366.96875 120.410156 367.402344 L 262.617188 426.847656 C 264.019531 427.445312 265.484375 427.742188 267.011719 427.742188 C 268.539062 427.742188 270.003906 427.445312 271.40625 426.847656 L 413.613281 367.402344 C 414.632812 366.96875 415.566406 366.402344 416.414062 365.695312 C 417.265625 364.984375 417.992188 364.171875 418.601562 363.246094 C 419.214844 362.324219 419.675781 361.335938 419.996094 360.273438 C 420.3125 359.214844 420.46875 358.132812 420.46875 357.027344 L 420.46875 268.035156 L 456.855469 253.964844 C 457.546875 253.699219 458.207031 253.367188 458.835938 252.972656 C 459.464844 252.578125 460.046875 252.125 460.585938 251.613281 C 461.125 251.101562 461.609375 250.542969 462.039062 249.9375 C 462.464844 249.332031 462.832031 248.691406 463.132812 248.011719 C 463.4375 247.335938 463.667969 246.632812 463.832031 245.910156 C 464 245.1875 464.089844 244.453125 464.109375 243.710938 C 464.128906 242.96875 464.078125 242.234375 463.953125 241.5 C 463.828125 240.769531 463.632812 240.058594 463.367188 239.363281 C 463.101562 238.671875 462.769531 238.011719 462.375 237.382812 C 461.976562 236.753906 461.523438 236.171875 461.015625 235.632812 C 460.503906 235.09375 459.945312 234.609375 459.339844 234.179688 C 458.734375 233.753906 458.09375 233.386719 457.414062 233.085938 C 456.738281 232.78125 456.035156 232.550781 455.3125 232.386719 C 454.589844 232.222656 453.855469 232.128906 453.113281 232.109375 C 452.371094 232.089844 451.636719 232.144531 450.90625 232.269531 C 450.175781 232.394531 449.460938 232.59375 448.769531 232.859375 L 267.011719 303.03125 L 64.863281 225.121094 L 267.011719 147.03125 L 489.023438 232.683594 L 489.023438 361.773438 C 472.585938 366.640625 460.546875 381.859375 460.546875 399.589844 C 460.546875 421.175781 478.445312 438.984375 500.273438 438.984375 C 522.101562 438.984375 540.175781 421.175781 540.175781 399.589844 C 540.175781 381.847656 527.972656 366.632812 511.523438 361.773438 L 511.523438 225.121094 C 511.527344 223.980469 511.363281 222.863281 511.027344 221.769531 C 510.695312 220.679688 510.207031 219.664062 509.5625 218.722656 C 508.917969 217.777344 508.148438 216.953125 507.253906 216.246094 C 506.359375 215.535156 505.378906 214.976562 504.316406 214.566406 L 271.054688 124.519531 C 269.296875 123.828125 267.480469 123.59375 265.605469 123.816406 Z M 136.054688 276.476562 L 262.96875 325.542969 C 264.269531 326.046875 265.617188 326.296875 267.011719 326.296875 C 268.40625 326.296875 269.753906 326.046875 271.054688 325.542969 L 397.96875 276.652344 L 397.96875 349.464844 L 267.011719 404.335938 L 136.054688 349.289062 Z M 500.273438 382.527344 C 509.871094 382.527344 517.5 390.09375 517.5 399.589844 C 517.5 409.082031 509.871094 416.648438 500.273438 416.648438 C 490.675781 416.648438 483.046875 409.082031 483.046875 399.589844 C 483.046875 390.09375 490.675781 382.527344 500.273438 382.527344 Z M 500.273438 382.527344 " fill-opacity="1" fill-rule="nonzero"/></svg>