<svg xmlns="http://www.w3.org/2000/svg" xmlns:xlink="http://www.w3.org/1999/xlink" width="750" zoomAndPan="magnify" viewBox="0 0 562.5 562.499982" height="750" preserveAspectRatio="xMidYMid meet" version="1.0"><defs><clipPath id="9781177041"><path d="M 0 0 L 562 0 L 562 562 L 0 562 Z M 0 0 " clip-rule="nonzero"/></clipPath></defs><g clip-path="url(#9781177041)"><path fill="#ffffff" d="M 0 0 L 562.5 0 L 562.5 562.5 L 0 562.5 Z M 0 0 " fill-opacity="1" fill-rule="nonzero"/><path fill="#ffffff" d="M 0 0 L 562.5 0 L 562.5 562.5 L 0 562.5 Z M 0 0 " fill-opacity="1" fill-rule="nonzero"/></g><path fill="#000000" d="M 68.265625 228.023438 L 115.140625 255.46875 C 116.421875 256.234375 117.871094 256.578125 119.234375 256.578125 C 122.046875 256.578125 124.773438 255.128906 126.308594 252.570312 C 128.609375 248.734375 127.246094 243.707031 123.410156 241.40625 L 88.550781 220.949219 L 123.410156 200.492188 C 127.246094 198.191406 128.609375 193.246094 126.308594 189.328125 C 124.003906 185.492188 119.0625 184.128906 115.140625 186.429688 L 68.265625 213.875 C 65.710938 215.496094 64.175781 218.136719 64.175781 221.035156 C 64.175781 223.933594 65.710938 226.574219 68.265625 228.023438 Z M 68.265625 228.023438 " fill-opacity="1" fill-rule="nonzero"/><path fill="#000000" d="M 218.949219 252.570312 C 220.484375 255.128906 223.210938 256.578125 226.023438 256.578125 C 227.386719 256.578125 228.835938 256.234375 230.113281 255.46875 L 276.988281 228.023438 C 279.460938 226.574219 280.996094 223.933594 280.996094 221.035156 C 280.996094 218.136719 279.460938 215.496094 276.988281 214.046875 L 230.113281 186.601562 C 226.191406 184.296875 221.25 185.664062 218.949219 189.496094 C 216.648438 193.332031 218.011719 198.363281 221.847656 200.664062 L 256.703125 221.121094 L 221.847656 241.574219 C 217.925781 243.707031 216.648438 248.734375 218.949219 252.570312 Z M 218.949219 252.570312 " fill-opacity="1" fill-rule="nonzero"/><path fill="#000000" d="M 140.453125 288.964844 C 141.5625 289.476562 142.753906 289.734375 143.949219 289.734375 C 147.015625 289.734375 149.914062 288.027344 151.277344 285.046875 L 208.464844 163.84375 C 210.339844 159.75 208.636719 154.894531 204.546875 153.015625 C 200.453125 151.058594 195.597656 152.847656 193.722656 156.9375 L 136.535156 278.140625 C 134.660156 282.234375 136.449219 287.089844 140.453125 288.964844 Z M 140.453125 288.964844 " fill-opacity="1" fill-rule="nonzero"/><path fill="#000000" d="M 413.351562 348.289062 L 495.597656 348.289062 C 500.113281 348.289062 503.691406 344.625 503.691406 340.191406 C 503.691406 335.675781 500.027344 332.09375 495.597656 332.09375 L 413.351562 332.09375 C 408.835938 332.09375 405.253906 335.761719 405.253906 340.191406 C 405.253906 344.625 408.921875 348.289062 413.351562 348.289062 Z M 413.351562 348.289062 " fill-opacity="1" fill-rule="nonzero"/><path fill="#000000" d="M 202.160156 340.191406 C 202.160156 344.710938 205.824219 348.289062 210.253906 348.289062 L 350.878906 348.289062 C 355.398438 348.289062 358.976562 344.625 358.976562 340.191406 C 358.976562 335.675781 355.3125 332.09375 350.878906 332.09375 L 210.253906 332.09375 C 205.824219 332.007812 202.160156 335.675781 202.160156 340.191406 Z M 202.160156 340.191406 " fill-opacity="1" fill-rule="nonzero"/><path fill="#000000" d="M 72.359375 348.289062 L 143.949219 348.289062 C 148.464844 348.289062 152.046875 344.625 152.046875 340.191406 C 152.046875 335.675781 148.378906 332.09375 143.949219 332.09375 L 72.359375 332.09375 C 67.839844 332.09375 64.261719 335.761719 64.261719 340.191406 C 64.175781 344.625 67.839844 348.289062 72.359375 348.289062 Z M 72.359375 348.289062 " fill-opacity="1" fill-rule="nonzero"/><path fill="#000000" d="M 72.359375 395.507812 L 495.597656 395.507812 C 500.113281 395.507812 503.691406 391.84375 503.691406 387.410156 C 503.691406 382.894531 500.027344 379.316406 495.597656 379.316406 L 72.359375 379.316406 C 67.839844 379.316406 64.261719 382.980469 64.261719 387.410156 C 64.175781 391.84375 67.839844 395.507812 72.359375 395.507812 Z M 72.359375 395.507812 " fill-opacity="1" fill-rule="nonzero"/><path fill="#000000" d="M 495.597656 426.363281 L 400.824219 426.363281 C 396.308594 426.363281 392.726562 430.027344 392.726562 434.460938 C 392.726562 438.980469 396.390625 442.558594 400.824219 442.558594 L 495.683594 442.558594 C 500.199219 442.558594 503.777344 438.894531 503.777344 434.460938 C 503.777344 430.027344 500.113281 426.363281 495.597656 426.363281 Z M 495.597656 426.363281 " fill-opacity="1" fill-rule="nonzero"/><path fill="#000000" d="M 363.578125 426.363281 L 239.574219 426.363281 C 235.058594 426.363281 231.476562 430.027344 231.476562 434.460938 C 231.476562 438.980469 235.140625 442.558594 239.574219 442.558594 L 363.578125 442.558594 C 368.097656 442.558594 371.675781 438.894531 371.675781 434.460938 C 371.761719 430.027344 368.097656 426.363281 363.578125 426.363281 Z M 363.578125 426.363281 " fill-opacity="1" fill-rule="nonzero"/><path fill="#000000" d="M 72.359375 442.644531 L 155.625 442.644531 C 160.140625 442.644531 163.722656 438.980469 163.722656 434.546875 C 163.722656 430.027344 160.058594 426.449219 155.625 426.449219 L 72.359375 426.449219 C 67.839844 426.449219 64.261719 430.113281 64.261719 434.546875 C 64.175781 438.980469 67.839844 442.644531 72.359375 442.644531 Z M 72.359375 442.644531 " fill-opacity="1" fill-rule="nonzero"/><path fill="#000000" d="M 495.597656 473.582031 L 407.558594 473.582031 C 403.039062 473.582031 399.460938 477.25 399.460938 481.679688 C 399.460938 486.199219 403.125 489.777344 407.558594 489.777344 L 495.683594 489.777344 C 500.199219 489.777344 503.777344 486.113281 503.777344 481.679688 C 503.777344 477.164062 500.113281 473.582031 495.597656 473.582031 Z M 495.597656 473.582031 " fill-opacity="1" fill-rule="nonzero"/><path fill="#000000" d="M 72.359375 489.863281 L 340.140625 489.863281 C 344.660156 489.863281 348.238281 486.199219 348.238281 481.765625 C 348.238281 477.25 344.574219 473.667969 340.140625 473.667969 L 72.359375 473.667969 C 67.839844 473.667969 64.261719 477.332031 64.261719 481.765625 C 64.175781 486.199219 67.839844 489.863281 72.359375 489.863281 Z M 72.359375 489.863281 " fill-opacity="1" fill-rule="nonzero"/><path fill="#000000" d="M 509.0625 15.195312 L 53.4375 15.195312 C 31.023438 15.195312 12.785156 33.433594 12.785156 55.851562 L 12.785156 511.511719 C 12.785156 533.929688 31.023438 552.167969 53.4375 552.167969 L 509.0625 552.167969 C 531.476562 552.167969 549.714844 533.929688 549.714844 511.511719 L 549.714844 55.851562 C 549.714844 33.433594 531.476562 15.195312 509.0625 15.195312 Z M 29.0625 55.851562 C 29.0625 42.382812 39.972656 31.472656 53.4375 31.472656 L 509.0625 31.472656 C 522.527344 31.472656 533.4375 42.382812 533.4375 55.851562 L 533.4375 104.007812 L 29.0625 104.007812 Z M 533.4375 511.511719 C 533.4375 524.980469 522.527344 535.890625 509.0625 535.890625 L 53.4375 535.890625 C 39.972656 535.890625 29.0625 524.980469 29.0625 511.511719 L 29.0625 120.289062 L 533.523438 120.289062 L 533.523438 511.511719 Z M 533.4375 511.511719 " fill-opacity="1" fill-rule="nonzero"/><path fill="#000000" d="M 72.699219 61.988281 C 72.273438 61.644531 71.847656 61.304688 71.421875 61.050781 C 70.996094 60.625 70.484375 60.367188 69.972656 60.28125 C 69.460938 60.027344 69.035156 59.855469 68.4375 59.769531 C 67.5 59.515625 66.308594 59.515625 65.285156 59.769531 C 64.773438 59.855469 64.261719 60.027344 63.835938 60.28125 C 63.324219 60.367188 62.8125 60.625 62.300781 60.964844 C 61.875 61.304688 61.449219 61.644531 61.109375 61.902344 C 60.339844 62.753906 59.828125 63.605469 59.402344 64.628906 C 58.890625 65.652344 58.722656 66.675781 58.722656 67.699219 C 58.722656 69.914062 59.574219 71.960938 61.109375 73.492188 C 61.960938 74.261719 62.8125 74.773438 63.835938 75.199219 C 64.773438 75.625 65.796875 75.878906 66.902344 75.878906 C 68.011719 75.878906 69.035156 75.625 69.972656 75.199219 C 70.910156 74.773438 71.847656 74.261719 72.699219 73.492188 C 74.234375 71.960938 75 69.914062 75 67.699219 C 75 66.675781 74.746094 65.566406 74.316406 64.628906 C 73.976562 63.691406 73.378906 62.753906 72.699219 61.988281 Z M 72.699219 61.988281 " fill-opacity="1" fill-rule="nonzero"/><path fill="#000000" d="M 113.351562 61.988281 C 112.5 61.21875 111.648438 60.707031 110.625 60.28125 C 109.175781 59.601562 107.558594 59.429688 105.9375 59.769531 C 105.425781 59.855469 105 60.027344 104.488281 60.28125 C 103.890625 60.453125 103.550781 60.707031 103.039062 61.050781 C 102.613281 61.304688 102.1875 61.730469 101.847656 61.988281 C 101.078125 62.839844 100.566406 63.605469 100.140625 64.714844 C 99.714844 65.652344 99.460938 66.761719 99.460938 67.78125 C 99.460938 68.804688 99.714844 69.914062 100.140625 70.851562 C 100.566406 71.789062 101.078125 72.726562 101.847656 73.578125 C 102.699219 74.347656 103.550781 74.859375 104.574219 75.285156 C 105.511719 75.710938 106.621094 75.964844 107.640625 75.964844 C 108.664062 75.964844 109.773438 75.710938 110.710938 75.285156 C 111.648438 74.859375 112.585938 74.347656 113.4375 73.578125 C 114.203125 72.726562 114.714844 71.875 115.140625 70.851562 C 115.566406 69.914062 115.824219 68.804688 115.824219 67.78125 C 115.824219 66.761719 115.566406 65.652344 115.140625 64.714844 C 114.628906 63.605469 114.035156 62.753906 113.351562 61.988281 Z M 113.351562 61.988281 " fill-opacity="1" fill-rule="nonzero"/><path fill="#000000" d="M 154.003906 61.988281 C 151.023438 59.003906 145.566406 59.003906 142.414062 61.988281 C 140.964844 63.519531 140.027344 65.652344 140.027344 67.78125 C 140.027344 70 140.878906 72.042969 142.414062 73.578125 C 143.265625 74.347656 144.035156 74.859375 145.140625 75.285156 C 146.078125 75.710938 147.1875 75.964844 148.210938 75.964844 C 149.234375 75.964844 150.339844 75.710938 151.277344 75.285156 C 152.214844 74.859375 153.152344 74.347656 154.003906 73.578125 C 155.453125 72.042969 156.390625 70 156.390625 67.78125 C 156.390625 66.761719 156.136719 65.652344 155.710938 64.714844 C 155.285156 63.605469 154.773438 62.667969 154.003906 61.988281 Z M 154.003906 61.988281 " fill-opacity="1" fill-rule="nonzero"/><path fill="#000000" d="M 495.597656 59.601562 L 305.964844 59.601562 C 301.449219 59.601562 297.871094 63.265625 297.871094 67.699219 C 297.871094 72.128906 301.535156 75.796875 305.964844 75.796875 L 495.597656 75.796875 C 500.113281 75.796875 503.691406 72.128906 503.691406 67.699219 C 503.691406 63.265625 500.113281 59.601562 495.597656 59.601562 Z M 495.597656 59.601562 " fill-opacity="1" fill-rule="nonzero"/></svg>