<svg xmlns="http://www.w3.org/2000/svg" xmlns:xlink="http://www.w3.org/1999/xlink" width="500" zoomAndPan="magnify" viewBox="0 0 375 374.999991" height="500" preserveAspectRatio="xMidYMid meet" version="1.0"><defs><g/></defs><rect x="-37.5" width="450" fill="#ffffff" y="-37.499999" height="449.999989" fill-opacity="1"/><rect x="-37.5" width="450" fill="#000000" y="-37.499999" height="449.999989" fill-opacity="1"/><g fill="#ffffff" fill-opacity="1"><g transform="translate(96.555644, 287.036715)"><g><path d="M 121.332031 -69.765625 C 120.765625 -70.335938 120.574219 -71.09375 120.574219 -72.042969 C 121.332031 -79.8125 120.765625 -87.585938 121.144531 -95.359375 C 121.144531 -97.066406 121.144531 -98.582031 120.953125 -100.097656 C 119.4375 -108.25 119.625 -116.214844 120.382812 -124.175781 C 120.953125 -131 121.523438 -137.636719 120.382812 -144.273438 C 120.003906 -146.546875 120.003906 -148.441406 120.382812 -150.71875 C 121.144531 -154.886719 121.144531 -159.25 119.816406 -163.230469 C 117.539062 -164.9375 115.078125 -166.261719 112.992188 -167.210938 C 111.851562 -167.210938 111.285156 -166.453125 110.714844 -166.074219 C 106.355469 -162.851562 102.5625 -158.871094 98.394531 -155.457031 C 93.085938 -151.097656 87.398438 -147.117188 82.277344 -142.375 C 77.160156 -137.824219 70.714844 -134.792969 65.972656 -128.914062 C 65.027344 -129.675781 64.269531 -129.863281 63.890625 -130.242188 C 54.789062 -137.066406 45.6875 -143.511719 37.347656 -151.285156 C 36.019531 -152.425781 34.695312 -153.5625 33.175781 -154.507812 C 30.523438 -156.214844 28.058594 -158.300781 26.164062 -160.953125 C 24.078125 -163.796875 21.042969 -165.503906 18.011719 -167.402344 C 15.734375 -165.695312 13.082031 -164.558594 11.183594 -162.28125 C 10.046875 -158.300781 9.480469 -154.507812 10.425781 -150.339844 C 10.996094 -148.0625 11.183594 -145.597656 10.996094 -143.132812 C 10.617188 -139.34375 10.804688 -135.171875 9.859375 -131.378906 C 9.667969 -130.054688 10.046875 -128.726562 10.238281 -127.398438 C 10.996094 -124.746094 10.996094 -122.089844 10.425781 -119.4375 C 9.667969 -116.78125 9.667969 -114.128906 10.238281 -111.472656 C 10.804688 -109.007812 10.804688 -106.734375 10.804688 -104.269531 C 10.804688 -100.859375 10.425781 -97.445312 10.617188 -94.222656 C 11.183594 -85.121094 10.996094 -76.210938 10.046875 -67.300781 C 9.289062 -60.476562 9.289062 -53.652344 10.046875 -46.828125 C 10.996094 -38.675781 10.996094 -30.523438 10.046875 -22.371094 C 9.667969 -18.957031 9.667969 -15.546875 10.617188 -11.945312 C 11.183594 -9.667969 11.375 -7.203125 10.996094 -4.738281 C 10.804688 -3.601562 10.617188 -2.464844 11.566406 -1.136719 C 13.839844 -0.570312 16.683594 -1.136719 19.148438 0.191406 C 16.871094 2.273438 13.648438 2.464844 11.566406 4.171875 C 11.945312 5.117188 12.511719 5.496094 12.890625 5.308594 C 14.597656 4.929688 16.113281 4.550781 17.632812 3.601562 C 20.285156 2.085938 23.128906 0.191406 26.351562 -0.191406 C 27.109375 -0.191406 27.867188 -0.378906 27.867188 -1.707031 C 25.402344 -1.894531 23.507812 -0.191406 21.234375 0 C 20.09375 -1.328125 20.09375 -2.84375 20.09375 -4.171875 C 20.09375 -7.203125 19.90625 -10.425781 20.285156 -13.460938 C 20.476562 -14.789062 20.664062 -16.113281 20.476562 -17.441406 C 19.714844 -23.128906 18.957031 -28.816406 19.527344 -34.503906 C 20.09375 -39.054688 19.527344 -43.605469 19.90625 -48.152344 C 20.09375 -53.082031 20.664062 -57.824219 19.335938 -62.5625 C 19.148438 -63.320312 19.148438 -64.269531 19.148438 -65.027344 C 19.148438 -69.578125 19.335938 -74.125 19.335938 -78.675781 C 19.335938 -79.433594 19.335938 -80.003906 19.527344 -80.761719 C 22.371094 -82.847656 25.023438 -85.5 28.625 -86.070312 C 28.625 -87.398438 29.574219 -88.15625 30.523438 -88.914062 C 35.640625 -92.707031 40.191406 -97.066406 45.6875 -100.097656 C 46.257812 -100.289062 46.636719 -100.667969 47.015625 -101.046875 C 52.136719 -106.355469 58.203125 -110.527344 63.511719 -115.644531 C 64.269531 -116.214844 64.835938 -116.972656 66.164062 -116.78125 C 69.386719 -115.078125 72.421875 -112.613281 74.886719 -109.578125 C 76.210938 -108.0625 77.347656 -106.164062 79.054688 -105.21875 C 83.984375 -102.753906 87.964844 -99.339844 91.757812 -95.359375 C 92.328125 -94.789062 92.894531 -94.410156 93.652344 -94.03125 C 97.066406 -92.136719 100.097656 -89.671875 102.941406 -87.019531 L 108.628906 -82.46875 C 109.578125 -81.898438 110.714844 -81.332031 111.664062 -79.8125 C 111.285156 -74.316406 111.664062 -68.4375 110.714844 -62.75 C 108.820312 -60.285156 105.976562 -59.527344 104.082031 -57.632812 C 103.890625 -56.875 104.082031 -56.496094 104.648438 -56.304688 C 106.734375 -57.253906 107.683594 -59.71875 110.148438 -59.71875 C 110.90625 -59.148438 110.90625 -58.390625 110.90625 -57.824219 C 111.285156 -53.460938 111.472656 -49.292969 111.09375 -44.929688 C 110.90625 -43.226562 110.527344 -41.328125 110.90625 -39.8125 C 111.851562 -34.3125 111.472656 -29.007812 110.90625 -23.699219 C 110.714844 -20.664062 110.714844 -17.632812 111.09375 -14.410156 C 111.851562 -10.617188 112.042969 -6.824219 110.90625 -2.84375 C 110.527344 -2.273438 109.957031 -1.515625 110.714844 -0.757812 C 115.078125 -0.570312 115.644531 -0.757812 119.816406 -2.464844 C 120.382812 -4.929688 120.574219 -7.394531 120.195312 -9.859375 C 119.816406 -13.648438 119.816406 -17.441406 120.382812 -21.042969 C 121.144531 -25.023438 120.574219 -28.816406 121.144531 -32.609375 C 121.332031 -33.746094 121.144531 -34.882812 120.765625 -35.832031 C 119.4375 -43.226562 119.625 -50.429688 121.523438 -57.632812 C 120.765625 -61.613281 119.4375 -65.40625 121.332031 -69.765625 Z M 25.59375 -157.351562 C 23.699219 -157.164062 23.699219 -157.164062 23.507812 -158.871094 C 24.835938 -159.058594 25.214844 -158.300781 25.59375 -157.351562 Z M 17.820312 -156.785156 C 18.769531 -156.785156 19.148438 -156.40625 19.148438 -155.457031 C 18.199219 -155.269531 17.820312 -155.269531 17.820312 -156.785156 Z M 118.679688 -82.46875 C 117.730469 -81.332031 116.59375 -81.332031 115.265625 -81.519531 C 114.507812 -83.226562 112.992188 -84.554688 111.09375 -85.3125 L 111.285156 -85.3125 L 111.09375 -85.3125 C 111.472656 -85.691406 112.234375 -85.878906 111.851562 -86.640625 C 111.664062 -86.449219 111.472656 -86.449219 111.472656 -86.449219 C 111.285156 -86.070312 111.285156 -85.691406 111.09375 -85.3125 C 110.714844 -85.5 110.335938 -85.5 110.148438 -85.691406 L 106.925781 -89.484375 C 107.113281 -91.757812 108.820312 -90.429688 109.769531 -90.808594 C 109.769531 -92.707031 109.007812 -94.222656 107.304688 -95.171875 C 105.027344 -96.496094 103.132812 -98.394531 101.425781 -100.476562 C 99.339844 -102.753906 97.066406 -104.269531 94.410156 -105.597656 C 92.707031 -106.546875 91.1875 -107.683594 89.863281 -109.007812 C 85.121094 -113.558594 79.625 -116.972656 74.695312 -121.332031 L 75.265625 -119.246094 C 74.886719 -117.921875 73.9375 -117.921875 72.988281 -117.539062 C 71.851562 -117.921875 72.230469 -119.246094 71.660156 -119.816406 C 69.765625 -121.332031 67.300781 -121.902344 66.164062 -123.988281 C 64.457031 -124.175781 63.890625 -122.847656 63.128906 -122.660156 C 62.5625 -121.710938 63.128906 -120.953125 62.371094 -120.382812 C 61.804688 -120.382812 61.234375 -120.382812 60.285156 -120.574219 L 61.992188 -125.125 L 65.40625 -127.589844 C 67.679688 -127.96875 69.957031 -126.449219 71.660156 -128.535156 C 72.230469 -129.292969 71.28125 -130.242188 71.660156 -131.191406 C 72.230469 -132.519531 73.746094 -133.085938 75.074219 -134.035156 C 76.402344 -133.65625 77.917969 -133.464844 79.433594 -133.65625 C 80.191406 -130.8125 77.539062 -130.433594 76.78125 -128.914062 C 76.023438 -127.210938 74.695312 -126.261719 73.179688 -125.503906 C 72.042969 -123.417969 72.988281 -122.089844 74.695312 -121.144531 C 74.503906 -121.902344 74.316406 -122.46875 73.9375 -123.226562 C 75.644531 -126.070312 78.296875 -127.96875 80.761719 -129.863281 C 88.722656 -135.929688 95.929688 -142.945312 104.460938 -148.441406 C 106.355469 -149.769531 108.820312 -151.285156 109.007812 -154.507812 C 110.90625 -153.75 112.234375 -155.078125 113.558594 -155.648438 C 114.507812 -155.078125 114.507812 -154.320312 114.128906 -153.75 C 113.371094 -152.804688 112.421875 -152.042969 111.285156 -150.90625 C 109.957031 -145.21875 109.957031 -139.152344 110.90625 -133.277344 C 111.664062 -129.292969 111.851562 -125.3125 110.90625 -121.332031 C 110.527344 -119.625 110.527344 -117.730469 110.90625 -116.023438 C 112.234375 -109.578125 111.851562 -102.941406 111.285156 -96.496094 C 111.09375 -95.359375 110.714844 -94.410156 111.472656 -93.273438 C 114.128906 -92.707031 113.371094 -96.117188 115.644531 -96.6875 C 116.214844 -95.738281 115.265625 -94.601562 115.644531 -93.84375 C 116.023438 -92.515625 117.539062 -92.328125 117.921875 -91.566406 C 118.109375 -90.242188 117.539062 -89.671875 117.351562 -88.914062 C 118.109375 -88.535156 118.679688 -88.34375 119.4375 -88.15625 C 120.195312 -86.070312 118.679688 -84.363281 118.679688 -82.46875 Z M 29.953125 -152.992188 C 29.574219 -152.234375 29.195312 -152.234375 28.625 -152.804688 C 29.007812 -153.5625 29.386719 -153.75 29.953125 -152.992188 Z M 55.925781 -121.144531 C 50.238281 -118.488281 45.6875 -114.316406 41.707031 -109.769531 C 40.191406 -108.0625 38.675781 -106.734375 36.589844 -105.785156 C 33.746094 -104.648438 31.46875 -102.5625 29.386719 -100.289062 C 27.867188 -98.582031 26.542969 -96.6875 23.699219 -95.738281 C 22.9375 -97.632812 22.558594 -99.53125 20.855469 -99.910156 L 20.285156 -103.703125 C 19.714844 -107.113281 18.957031 -110.714844 19.90625 -114.128906 C 20.855469 -117.539062 20.476562 -120.953125 19.714844 -124.367188 C 19.148438 -126.640625 19.148438 -128.726562 19.335938 -130.8125 C 19.90625 -134.601562 19.90625 -138.207031 19.714844 -141.996094 C 19.335938 -145.410156 19.714844 -148.632812 20.09375 -152.234375 C 22.9375 -151.855469 24.835938 -149.960938 26.921875 -148.632812 C 28.625 -147.496094 30.332031 -145.976562 31.851562 -144.652344 C 33.554688 -143.132812 35.261719 -141.996094 37.347656 -142.375 C 38.296875 -141.808594 37.539062 -141.050781 37.917969 -140.101562 C 40.949219 -137.066406 44.929688 -134.980469 48.152344 -131.570312 C 51.1875 -128.535156 54.789062 -126.070312 58.203125 -123.609375 C 58.011719 -121.902344 56.875 -121.710938 55.925781 -121.144531 Z M 62.183594 -128.15625 C 60.855469 -127.398438 60.476562 -127.589844 60.285156 -128.535156 C 61.234375 -129.105469 61.425781 -128.347656 62.183594 -128.15625 Z M 14.410156 -127.398438 C 14.597656 -128.535156 14.976562 -128.726562 15.734375 -127.777344 C 15.546875 -127.019531 15.167969 -126.832031 14.410156 -127.398438 Z M 78.867188 -112.421875 C 78.296875 -112.234375 77.730469 -112.421875 77.347656 -112.800781 C 76.023438 -114.128906 76.402344 -115.265625 76.96875 -116.59375 C 78.675781 -116.78125 79.433594 -116.023438 80.191406 -114.886719 C 80.003906 -113.75 79.8125 -112.800781 78.867188 -112.421875 Z M 16.492188 -111.09375 C 16.304688 -111.285156 16.304688 -111.285156 16.304688 -111.472656 L 16.871094 -111.472656 L 17.0625 -111.285156 C 16.871094 -110.90625 16.683594 -110.90625 16.492188 -111.09375 Z M 35.640625 -95.929688 C 35.640625 -97.445312 35.640625 -98.394531 36.96875 -98.773438 C 37.917969 -97.445312 37.15625 -96.6875 35.640625 -95.929688 Z M 20.476562 -97.632812 C 22.75 -95.738281 22.75 -95.171875 20.476562 -93.273438 C 19.714844 -94.980469 19.90625 -96.308594 20.476562 -97.632812 Z M 33.554688 -93.84375 L 33.175781 -93.84375 C 33.175781 -94.222656 32.796875 -94.601562 33.367188 -94.789062 C 33.746094 -94.601562 33.746094 -94.222656 33.554688 -93.84375 Z M 26.730469 -91.1875 C 26.351562 -91.378906 26.351562 -91.757812 26.542969 -92.136719 C 26.730469 -92.328125 27.109375 -92.328125 27.109375 -91.945312 C 27.300781 -91.566406 27.300781 -91.1875 26.730469 -91.1875 Z M 20.664062 -90.050781 C 21.800781 -91.566406 22.75 -91.378906 24.644531 -90.429688 C 23.128906 -88.722656 21.992188 -88.535156 20.664062 -90.050781 Z M 125.125 -72.230469 C 125.882812 -71.851562 126.261719 -72.421875 126.449219 -73.367188 C 125.503906 -73.367188 124.933594 -72.988281 125.125 -72.230469 Z M 112.992188 -58.011719 C 113.75 -58.390625 114.316406 -58.203125 114.316406 -57.253906 C 114.316406 -57.0625 114.128906 -56.683594 113.9375 -56.683594 C 113.179688 -56.683594 112.800781 -57.0625 112.992188 -58.011719 Z M 26.164062 -42.277344 C 25.59375 -42.277344 25.402344 -42.085938 25.214844 -41.519531 C 25.78125 -40.570312 26.921875 -40.382812 28.4375 -39.621094 C 27.679688 -41.140625 26.921875 -41.898438 26.164062 -42.277344 Z M 21.234375 -36.210938 C 22.9375 -35.832031 23.886719 -35.453125 25.59375 -34.882812 C 24.265625 -36.398438 23.320312 -36.96875 21.234375 -36.210938 Z M 116.214844 -21.992188 C 114.886719 -23.320312 114.886719 -24.644531 115.078125 -26.164062 C 116.023438 -26.542969 116.402344 -26.164062 116.78125 -25.78125 C 117.539062 -24.457031 116.59375 -23.320312 116.214844 -21.992188 Z M 108.820312 -19.527344 C 108.25 -19.335938 108.0625 -19.148438 108.441406 -18.578125 C 108.441406 -18.390625 108.628906 -18.390625 108.820312 -18.390625 C 109.390625 -18.769531 109.390625 -19.148438 108.820312 -19.527344 Z M 113.9375 -17.441406 C 113.558594 -18.011719 113.9375 -18.199219 114.507812 -18.390625 C 114.695312 -17.632812 114.695312 -17.632812 113.9375 -17.441406 Z M 24.644531 -10.046875 C 25.402344 -10.996094 25.214844 -11.945312 25.023438 -13.460938 C 24.078125 -11.945312 23.699219 -11.183594 24.644531 -10.046875 Z M 24.644531 -10.046875 "/></g></g></g><g fill="#ffffff" fill-opacity="1"><g transform="translate(198.090855, 324.563351)"><g><path d="M 94.769531 -55.261719 C 88.691406 -63.273438 80.957031 -69.902344 73.496094 -76.8125 C 65.484375 -83.996094 57.746094 -91.453125 52.21875 -100.574219 C 46.140625 -103.058594 40.890625 -108.585938 41.445312 -111.625 L 45.035156 -114.113281 C 45.035156 -115.492188 45.589844 -116.597656 44.484375 -117.703125 C 40.890625 -118.808594 40.339844 -114.664062 37.851562 -114.113281 C 34.539062 -116.046875 32.050781 -118.808594 29.5625 -121.570312 C 30.117188 -122.953125 30.667969 -124.058594 31.222656 -124.886719 L 30.945312 -124.886719 C 32.328125 -125.714844 33.707031 -126.546875 34.8125 -127.648438 C 45.589844 -139.808594 58.300781 -150.03125 68.796875 -162.464844 C 72.667969 -167.160156 77.085938 -171.304688 81.785156 -175.171875 C 88.691406 -180.699219 94.769531 -187.054688 100.574219 -193.6875 C 101.402344 -194.789062 102.785156 -195.894531 103.058594 -197.832031 C 100.574219 -200.871094 97.808594 -203.910156 94.496094 -205.84375 C 92.835938 -205.289062 92.007812 -204.460938 91.453125 -203.632812 C 81.785156 -193.6875 70.734375 -185.121094 61.613281 -174.621094 C 51.390625 -163.015625 38.957031 -153.621094 29.011719 -141.742188 C 25.695312 -137.875 21.273438 -134.558594 17.40625 -130.964844 C 16.023438 -129.859375 14.644531 -128.753906 13.816406 -127.097656 C 13.539062 -123.78125 14.367188 -120.464844 15.195312 -116.597656 C 23.761719 -109.691406 29.839844 -100.019531 39.234375 -93.390625 C 43.378906 -92.558594 47.800781 -94.496094 51.390625 -91.179688 C 51.117188 -90.074219 50.5625 -88.96875 50.285156 -87.585938 C 50.839844 -86.480469 51.390625 -85.375 52.21875 -84.269531 C 51.667969 -82.890625 51.117188 -81.507812 51.390625 -79.851562 C 52.496094 -77.917969 54.15625 -76.535156 55.8125 -74.878906 C 63.273438 -67.691406 71.285156 -61.0625 77.640625 -52.773438 C 81.785156 -47.800781 86.757812 -43.378906 91.730469 -39.511719 C 92.558594 -38.683594 93.390625 -37.851562 95.324219 -38.128906 C 97.808594 -40.890625 101.125 -43.101562 103.058594 -46.417969 C 100.019531 -49.457031 97.257812 -51.945312 94.769531 -55.261719 Z M 57.46875 -160.253906 C 59.40625 -159.148438 59.957031 -157.492188 59.128906 -155.554688 C 55.261719 -157.214844 55.261719 -157.214844 57.46875 -160.253906 Z M 49.734375 -156.660156 C 50.011719 -155.554688 49.179688 -155.832031 48.074219 -156.109375 C 48.90625 -156.9375 49.734375 -157.214844 49.734375 -156.660156 Z M 52.496094 -154.453125 C 54.15625 -153.347656 54.15625 -153.347656 54.707031 -151.6875 C 53.050781 -151.6875 52.21875 -151.964844 52.496094 -154.453125 Z M 43.101562 -151.6875 C 44.207031 -150.308594 42.550781 -149.753906 41.996094 -148.925781 C 41.445312 -150.308594 41.722656 -151.410156 43.101562 -151.6875 Z M 21 -122.675781 C 21 -123.230469 20.722656 -123.503906 20.722656 -123.78125 C 20.722656 -124.058594 20.722656 -124.609375 21 -125.164062 C 22.933594 -125.441406 25.144531 -125.992188 27.355469 -126.269531 L 29.011719 -127.375 C 30.667969 -127.097656 30.945312 -125.992188 30.945312 -124.886719 C 29.5625 -125.441406 28.457031 -125.992188 27.355469 -126.269531 C 25.417969 -122.402344 25.417969 -122.402344 21 -122.675781 Z M 38.128906 -98.640625 C 44.484375 -99.191406 45.035156 -99.191406 45.3125 -95.597656 C 42.550781 -95.597656 41.167969 -97.808594 38.128906 -98.640625 Z M 42.550781 -89.519531 C 45.589844 -85.652344 45.867188 -85.375 46.972656 -85.929688 C 47.246094 -87.308594 46.972656 -88.140625 46.140625 -89.519531 C 44.761719 -90.074219 43.65625 -90.902344 42.550781 -89.519531 Z M 69.351562 -71.285156 C 69.074219 -71.285156 68.796875 -71.5625 68.796875 -71.835938 C 68.796875 -72.941406 69.351562 -73.21875 70.457031 -72.941406 C 70.734375 -71.835938 70.457031 -71.285156 69.351562 -71.285156 Z M 69.351562 -71.285156 "/></g></g></g></svg>